<svg xmlns="http://www.w3.org/2000/svg" viewBox="0 0 867.16 753.23"><defs><style>.cls-1{fill:#fdd835;}.cls-2{fill:#7c46b6;}.cls-3{fill:#191d49;}.cls-4{fill:#ffe780;}</style></defs><g id="Capa_2" data-name="Capa 2"><path class="cls-1" d="M477.32,234.5a611.14,611.14,0,0,0-76.15-63.28l-10.29,12.33a573.34,573.34,0,0,1,61.06,49Z"/><path class="cls-1" d="M559,355.74l6.59-18.45c-11.41-16-23.69-31.88-36.78-47.45q-13.92-16.56-28.45-32l-23.84-1.68c13.66,13.83,27.06,28.52,40,44C531.84,318.37,546.05,337,559,355.74Z"/><path class="cls-1" d="M636.46,466.2c-13-34.16-31.67-70-54.94-105.55l-7.09,18.56c19.63,31.21,35.51,62.38,46.9,92.22Z"/><path class="cls-1" d="M665.35,577.49a245.1,245.1,0,0,0-3.56-26c-1.61-8.57-3.57-17-5.8-25.44q-5-18.76-11.56-37L631.32,494c4.63,11.68,8.8,23.55,12.43,35.56,4.82,16.11,8.74,32.51,10.64,49a139.82,139.82,0,0,1,.81,24.67c-.53,8.1-2,16.13-5.16,23.23A39,39,0,0,1,644,636.1a30.24,30.24,0,0,1-8.87,6.77c-6.86,3.52-15,5.14-23.11,5.65a113.9,113.9,0,0,1-36.85-4.22A73.63,73.63,0,0,1,563.62,640c-1.75-.85-3.63-2-5.48-3s-3.69-2.1-5.53-3.15q-5.5-3.2-10.9-6.58-10.79-6.75-21.06-14.32a323.15,323.15,0,0,1-38.58-33.3,363.44,363.44,0,0,1-33.15-38.92l-.82.59a367.57,367.57,0,0,0,32,40.18A326.36,326.36,0,0,0,518,616.5q10.14,8,20.86,15.21c3.57,2.39,7.18,4.75,10.83,7,1.83,1.13,3.65,2.29,5.51,3.38s3.62,2.23,5.69,3.31a79.86,79.86,0,0,0,12.35,5A118.42,118.42,0,0,0,586,653.79a115.83,115.83,0,0,0,26.33,2.39,81.27,81.27,0,0,0,13.38-1.47,55.9,55.9,0,0,0,13.15-4.25,38.82,38.82,0,0,0,11.65-8.36,47.56,47.56,0,0,0,7.94-11.71c4.09-8.42,6-17.46,6.87-26.35A150,150,0,0,0,665.35,577.49Z"/><path class="cls-1" d="M228.55,276.65l-1.92.71c.86,1.25,1.71,2.49,2.59,3.72A177.08,177.08,0,0,0,243.72,299l.74-.67A174.69,174.69,0,0,1,230.74,280C230,278.92,229.27,277.78,228.55,276.65Z"/><path class="cls-1" d="M339.15,135.76a306.4,306.4,0,0,0-44-16.32,189.27,189.27,0,0,0-23.14-5,125.16,125.16,0,0,0-23.89-1.33,81.36,81.36,0,0,0-23.85,4.51,61,61,0,0,0-21,12.64c-1.49,1.41-2.93,2.87-4.27,4.4-.67.78-1.35,1.59-2,2.41s-1.26,1.66-1.81,2.54a48.53,48.53,0,0,0-5.45,11.11,68.13,68.13,0,0,0-3.25,23.79,118.31,118.31,0,0,0,3.18,23.3,180.7,180.7,0,0,0,6.8,22.27A263.1,263.1,0,0,0,216,260.63l2.66-.79a260.41,260.41,0,0,1-18-41.19,177.2,177.2,0,0,1-5.82-21.9,112.06,112.06,0,0,1-2.22-22.27,61.48,61.48,0,0,1,3.67-21.4,41.43,41.43,0,0,1,5-9.31c.48-.73,1.07-1.38,1.6-2.07s1.14-1.31,1.74-2c1.24-1.29,2.55-2.51,3.89-3.68a53,53,0,0,1,18.6-10.17,72.13,72.13,0,0,1,21.31-3.07A114.77,114.77,0,0,1,270.28,125a175.6,175.6,0,0,1,21.56,5.6A294.6,294.6,0,0,1,333.29,148a387.94,387.94,0,0,1,39,22.67l8.26-13.19A404.92,404.92,0,0,0,339.15,135.76Z"/><path class="cls-2" d="M551.66,81.52c-36.27-16.43-84.27.2-135.13,46.84-30.24,27.73-59.55,64.21-85.94,106.51l19.88-1.48c23.92-36.83,50-68.64,76.87-93.24,22.75-20.85,44.65-35.28,65.11-42.87,20.13-7.48,37.84-7.88,52.61-1.18s26.15,20.26,33.81,40.33c7.77,20.39,11.37,46.37,10.69,77.22-1.42,64.53-21.35,142.35-56.13,219.12-20.57,45.4-44.84,87.14-71.08,122.69L473,567.93c27.78-37.13,53.42-80.9,75-128.56,9.33-20.6,17.62-41.29,24.81-61.82C593.05,319.69,604.48,263.2,605.56,214,607.08,145,587.94,98,551.66,81.52Z"/><path class="cls-2" d="M325.69,257.63l5.84,6.81c1.42-2.48,2.86-4.95,4.3-7.4Z"/><path class="cls-2" d="M273.31,374c7.74-10.35,10.56-18.41,11.82-24.71a56.3,56.3,0,0,0,.11-20.81c-.35-2-.75-4-1.18-6.07-10.17,22.64-19.08,45.38-26.64,67.87A84,84,0,0,0,273.31,374Z"/><path class="cls-3" d="M352.45,252.28c21.23-1.66,43.08-2.39,65.27-2.16,58.65.63,114.72,8,163.32,21.17l1.94-16c-49.42-13.15-106-20.49-165.09-21.13a728.72,728.72,0,0,0-105.27,6.34l11.43,14.64Q338,253.42,352.45,252.28Z"/><path class="cls-3" d="M646.48,277.15a411.69,411.69,0,0,0-42.22-15.74l-2.34,16A391.85,391.85,0,0,1,640,291.8c28.25,12.41,50.28,26.65,65.48,42.31,15,15.42,22.45,31.46,22.27,47.68s-8,32.1-23.29,47.19c-15.52,15.33-37.85,29.09-66.36,40.9C604.2,483.94,563.9,494.23,520,500.34l-11.32,17.57c50.57-6,97-17.25,135.63-33.25,63.76-26.4,99.11-62.88,99.53-102.7S709.66,304.91,646.48,277.15Z"/><path class="cls-2" d="M249.9,483.41c2.43-13.91,5.5-28.16,9.22-42.64a131.59,131.59,0,0,1-17.36,3.53q-4.24,17.47-7.26,34.44Z"/><path class="cls-2" d="M459.35,559.47c-17.23,22.91-35.27,43.15-53.64,60-22.75,20.86-44.65,35.28-65.11,42.88-20.14,7.48-37.84,7.87-52.61,1.18s-26.15-20.26-33.81-40.33c-7.78-20.39-11.37-46.37-10.7-77.22a398.39,398.39,0,0,1,3.38-42.65l-15.52-4.59a415.53,415.53,0,0,0-3.85,46.88c-1.52,69,17.62,116,53.89,132.48s84.27-.2,135.14-46.83c18.17-16.66,36-36.48,53.07-58.82Z"/><path class="cls-1" d="M221.23,437.6c-1.48-2.76-.72-7.38,7.21-17.83,17.95-23.67,32.1-23.79,48.3-45.46,7.74-10.36,10.56-18.42,11.82-24.71a56,56,0,0,0,.1-20.81c-7.18-42.09-34.89-93.64-29.85-118.16,1.93-9.42,4.1-10.58,13-7,19.43,7.84,49.83,60.1,82,90.21a56.34,56.34,0,0,0,17.41,11.42c5.94,2.44,14.22,4.54,27.13,3.83C418,308,430.53,296.46,463,294c8.6-.65,16.48-.55,18.85,3.86s.32,11-7.2,17.84c-22,20-37.26,27-48.31,45.46-6.63,11.1-10.56,18.42-11.82,24.71a56.44,56.44,0,0,0-.1,20.81c5.33,31.74,31.8,99,29.85,118.16-.18,1.79-.67,6.65-3.89,8.37s-7.54-.55-9.13-1.39c-17-9-58.47-68.22-82-90.21a56.4,56.4,0,0,0-17.41-11.43,51.47,51.47,0,0,0-27.13-3.82c-26.37,3-38.24,12.11-64.61,15.07-13,1.47-17.37-1.1-18.86-3.87"/><path class="cls-4" d="M380.39,356.23c-7.86,9.12-26,6.39-40.5-6.11s-19.9-30-12-39.12,26-6.38,40.5,6.11,19.9,30,12,39.12"/><path class="cls-3" d="M399.59,506.46c-78.47-2.43-151.46-17-206.95-41.35-28.25-12.41-50.28-26.65-65.47-42.31-15-15.42-22.45-31.46-22.28-47.68s8-32.1,23.29-47.19C143.71,312.6,166,298.84,194.55,287a431.06,431.06,0,0,1,67.9-21.27c-1.84-5.22-3.58-10.31-5.14-15.21a444.12,444.12,0,0,0-68.88,21.7c-63.76,26.4-99.11,62.88-99.54,102.7S123,452,186.2,479.76c60.89,26.76,141.83,42,228,43C409.59,517.88,404.67,512.32,399.59,506.46Z"/><path class="cls-3" d="M443.81,506.54c1.58,5.9,2.86,11.29,3.65,15.9q17.16-.56,33.91-1.86l1.7-.14,9.63-16.9C476.75,505.08,460.41,506.08,443.81,506.54Z"/></g></svg>